<svg xmlns="http://www.w3.org/2000/svg" viewBox="0 0 1600 800" preserveAspectRatio="xMidYMid slice">
  <defs>
    <linearGradient id="g" x1="0" x2="1">
      <stop offset="0" stop-color="#eaf6ee"/>
      <stop offset="1" stop-color="#dff3e6"/>
    </linearGradient>
  </defs>
  <rect width="100%" height="100%" fill="url(#g)" />
  <g transform="translate(80,120)" fill="#236537" opacity="0.18">
    <ellipse cx="1200" cy="380" rx="360" ry="200"/>
    <ellipse cx="920" cy="460" rx="420" ry="220"/>
  </g>
  <g transform="translate(100,200)" fill="#236537">
    <path d="M180 320c40-80 120-120 200-100 20 60-40 120-100 180-60 60-140 60-180 20-40-40-30-120 80-100z"/>
    <path d="M70 420c30-60 90-90 150-75 15 45-30 90-75 135-45 45-105 45-135 15-30-30-22-90 60-75z" opacity="0.9"/>
  </g>
</svg>
